Patient4_TMGait_0pt5_02_right_20_EMG.mot
version=1
nRows=33
nColumns=33
inDegrees=no
endheader
time	1LAddLong	2LGlutMax	3LGlutMed	4LIliopsoas	5LSemiMemb	6LBicFemLong	7LRecFem	8LVastMed	9LVastLat	10LGasMed	11LTibAnt	12lTibPost	13LPeroneusLong	14LSol	15LExtDigLong	16LFlexDigLong	17RAddLong	18RGlutMax	19RGlutMed	20RIliopsoas	21RSemiMemb	22RBicFemLong	23RRecFem	24RVastMed	25RVastLat	26RGasMed	27RTibAnt	28RTibPost	29RPeroneusLong	30RSol	31RExtDigLong	32RFlexDigLong
26.41	0.010071	0.068512	0.02594	0.015717	0.014496	-0.072479	0.25162	0.008087	0.045776	-0.064392	0.072479	0.009003	0.038147	0.077209	0.35416	-0.02655	-0.035095	0.11169	0.15793	0.025024	0.072632	0.30579	0.18982	-0.1918	0.13382	0.032959	0.5397	-0.009766	-2.0024	-0.26977	-0.005951	0.009766
26.411	0.009308	0.063171	0.08316	0.016632	0.011749	-0.067902	0.13092	0.005341	0.06897	-0.053864	0.076599	-0.00824	0.032349	0.12039	0.3302	-0.016174	0.033264	0.092316	0.53986	-0.027313	-0.11887	0.36682	0.25436	-0.16663	0.11627	0.027771	0.44449	-0.003815	-0.21194	-0.17883	-0.000763	0.003204
26.412	0.012512	0.088654	0.13519	0.024719	0.006866	-0.081482	-0.010071	0.001526	0.055237	0.004883	0.043945	-0.001068	-0.014343	0.13489	0.021515	-0.023804	0.077667	0.16403	0.36972	-0.053711	-0.011292	0.30365	0.2269	-0.033722	0.44388	-0.011902	0.099487	-0.009918	0.22079	-0.1622	-0.00473	0.003967
26.413	0.006714	0.075073	0.15472	0.023651	0.010223	-0.07019	-0.20889	0.005341	0.014801	-0.016174	-0.066376	0.001373	0.03006	0.21668	-0.074615	0.001221	0.10819	0.13214	0.28717	-0.029755	-0.030975	0.3891	0.15366	0.065613	0.57785	-0.10788	-0.20889	-0.013885	0.066071	-0.027313	-0.006256	0.001526
26.414	0.009766	0.053864	0.057068	0.005341	0.016632	-0.079193	-0.20187	0.006256	-0.00351	0.014648	-0.24948	0.014038	0.018463	0.27191	-0.16037	-0.001984	0.057678	0.024414	0.43793	0.012512	-0.15457	0.70389	0.14206	0.05127	0.26291	-0.13443	-0.23666	-0.018768	0.15976	0.13382	-0.001526	0.000916
26.415	0.014191	0.041504	-0.01709	-0.023804	0.015717	-0.084686	-0.21316	0.010071	-0.010986	-0.005646	-0.15961	0.014496	-0.062561	0.23544	-0.027161	-0.000763	0.009613	-0.047455	0.073242	0.014496	-0.03479	0.44266	0.078278	-0.082703	-0.26947	-0.1915	-0.12985	-0.028381	1.2163	0.31036	-0.002289	-0.00351
26.416	0.024109	0.062103	-0.042725	-0.003815	0.012665	-0.057373	-0.27405	0.00473	-0.027771	0.072021	-0.10498	0.008545	-0.066528	0.27329	0.24109	0.005341	-0.032654	-0.12238	-0.24612	-0.041504	-0.39597	0.25162	-0.11734	-0.16098	-0.26657	-0.21362	-0.069275	-0.042419	0.54062	0.23636	-0.00946	0.000763
26.417	0.021057	0.072937	-0.001068	0.02533	0.014191	-0.033875	-0.4393	-0.003357	-0.014038	0.088501	-0.027008	-0.022736	0.05127	0.27481	0.11749	0.019836	-0.040283	-0.001984	0.2507	-0.23438	-0.54123	0.046997	-0.18967	-0.066681	-0.3157	-0.16541	-0.13001	-0.042877	-0.82962	0.26794	-0.007935	0.002136
26.418	0.028992	0.099487	-0.020142	0.034943	0.00412	-0.015106	-0.52658	-0.003357	-0.023651	0.074615	0.15961	0.006866	0.099487	0.19226	0.039368	0.030975	0.015869	0.11231	0.71579	-0.21271	-0.41382	-0.24475	-0.082245	-0.11047	-0.42343	-0.083618	-0.13779	0.027618	-0.97839	0.39734	-0.006409	0.005188
26.419	0.027008	0.13702	-0.013428	0.028839	0.004272	-0.013275	-0.50781	0.010834	-0.00885	0.10864	0.32196	-0.019379	0.064392	0.1178	0.3923	0.016022	-0.009308	0.11917	0.34225	-0.08667	-0.22629	-0.25833	0.042572	-0.21561	-0.62744	-0.005188	-0.16266	-0.070038	-0.811	0.25787	-0.003204	0.005951
26.42	0.034027	0.12894	0.011444	0.002136	0.009003	-0.036469	-0.52902	0.005646	0.005951	0.048065	0.43335	0.002289	0.00351	0.27634	0.1799	0.011597	-0.055847	0.092316	0.92483	0.069275	-0.2446	-0.15823	-0.051575	-0.17258	-0.5014	0.19943	-0.16663	0.06134	-0.006866	0.2887	0.003204	0.001068
26.421	0.0177	0.13855	0.010681	-0.013733	0.010376	-0.053864	-0.44891	-0.015106	0.03067	0.005798	0.24948	-0.009613	0.14069	0.29327	0.23148	0.03067	-0.091248	0.13031	0.88531	0.10071	0.36652	-0.13412	-0.25436	0.28366	-0.19409	0.20493	-0.13641	0.00351	-0.002289	0.52795	-0.001373	-0.003052
26.422	0.018005	0.18204	-0.009308	-0.011139	0.011749	-0.053101	-0.32272	-0.011902	0.081635	-0.04425	-0.23529	0.004272	0.30914	0.19775	-0.58258	0.019989	-0.066681	0.016022	0.2594	-0.077972	0.52368	-0.12222	-0.19562	0.28229	-0.085754	0.07019	-0.19699	0.011292	0.30045	0.37048	-0.003967	-0.001221
26.423	0.016174	0.19867	-0.001831	-0.006714	0.011902	-0.042114	-0.1828	-0.013123	0.087128	-0.04364	-0.17425	0.001984	0.26779	0.16724	-0.67627	0.03479	-0.057678	-0.041656	-0.16373	-0.11017	0.2533	-0.29022	-0.11414	0.29694	0.021667	-0.039978	-0.19333	0.072327	0.66513	0.36224	-0.000916	-0.002899
26.424	0.003967	0.20233	0.009308	-0.019226	0.007782	-0.048523	-0.081024	-0.011597	0.083008	0.028992	-0.095825	-0.001221	-0.007935	0.085144	-0.51651	0.014191	-0.054016	-0.10788	-0.38986	-0.13916	0.26138	-0.29251	-0.03479	0.16556	0.036926	0.003815	-0.11398	0.000153	0.47089	0.4892	0.005493	-0.00061
26.425	0.010223	0.23407	0.012817	-0.058289	0.017242	-0.080872	-0.008087	-0.011292	0.059052	0.055847	-0.003357	0.003815	-0.1857	0.005493	0.27161	0.020294	-0.048218	-0.056763	-0.58319	0.054016	0.22919	-0.1236	-0.007172	0.11063	0.036926	-0.010223	-0.075989	0.007629	-0.21378	0.52445	-0.004272	0.009003
26.426	0.016022	0.23361	-0.008545	-0.055695	0.016785	-0.080414	0.098877	-0.005493	0.045624	0.0354	0.13718	-0.000763	-0.14648	-0.038452	0.094604	0.014648	-0.033569	-0.16495	-0.57571	0.095673	0.22003	0.1712	0.005035	0.096741	0.040283	0.026855	-0.12009	0.003204	0.55313	0.21027	-0.001221	0.008545
26.427	-0.007019	0.22476	-0.005951	-0.015411	0.014343	-0.065765	0.15884	-0.006409	0.020752	0.040588	0.010376	0.01358	-0.046234	0.014801	-0.053101	0.00473	-0.030823	-0.28946	-0.39963	0.045776	0.16937	0.43793	-0.065765	0.12268	0.063934	0.039368	-0.1648	0.003815	0.75333	-0.11429	-0.001984	0.015411
26.428	-0.002594	0.24765	-0.017395	0.045624	0.011749	-0.058594	0.10864	-0.007324	0.011902	0.045013	0.068665	-0.005341	-0.061646	0.035706	-0.75348	-0.019073	-0.029755	-0.25955	-0.15915	0.18448	0.26169	0.78537	-0.08316	0.19867	0.085144	0.071564	0.024414	-0.015564	0.74219	-0.35111	0.002136	0.014801
26.429	0.000763	0.21362	-0.017853	0.074158	0.006256	-0.034637	0.07843	-0.009766	0.026703	0.030823	-0.069733	-0.010986	0.005035	-0.082703	-0.89035	-0.00946	0.012512	-0.19501	-0.10208	0.2771	0.35934	1.0181	-0.026093	0.13992	0.065918	0.081329	0.17929	0.002594	0.80215	-0.33249	-0.002899	0.013885
26.43	0.00885	0.22659	-0.029755	0.075836	-0.00061	-0.027313	0.20691	-0.015717	0.014038	-0.016174	-0.091095	0.003204	0.075378	-0.052185	0.24597	0.009613	0.024719	-0.11444	-0.004425	0.16174	0.30121	0.60089	0.027618	0.011749	0.036774	0.043488	0.36499	0.008087	0.70313	-0.1709	0.000763	-0.001373
26.431	0.017548	0.22507	-0.00473	0.087433	0.010376	0.0177	0.32074	-0.013123	-0.012207	-0.022125	-0.26977	0.000763	0.05127	0.12665	-0.1268	-0.006409	-0.011292	-0.096436	0.28824	-0.007019	-0.002441	0.39551	0.035095	0.046234	0.043793	-0.022736	0.35156	0.009308	0.092621	-0.21118	-0.003052	0.013275
26.432	0.023193	0.2388	0.021057	0.059204	-0.001221	0.042419	0.37064	-0.020752	-0.007935	0.041046	-0.35217	-0.012512	-0.03891	0.046234	-0.11627	-0.007782	-0.003052	0.006714	0.78003	-0.10483	0.000458	-0.006561	-0.001373	-0.01297	0.067444	-0.050964	0.084076	-0.005341	0.44601	-0.32898	0.000916	0.011902
26.433	0.026703	0.22873	-0.023956	0.047913	-0.001831	0.06073	0.36957	-0.029907	-0.003662	0.063171	-0.41626	-0.002289	-0.003204	-0.05722	-0.1181	0.013428	0.028229	-0.008392	0.26581	-0.045929	0.075836	-0.083771	-0.043945	-0.11063	0.06012	-0.003967	-0.31509	-0.006866	0.61325	-0.43991	-0.001373	0.013733
26.434	0.03479	0.2092	-0.014496	0.048676	0.001068	0.040131	0.42191	-0.041809	0.015411	0.048676	-0.24994	-0.005951	0.075684	-0.080872	-0.11993	0.001221	0.069733	-0.12009	-0.33035	0.033264	-0.093231	-0.29556	0.02121	-0.10208	0.017395	-0.044098	-0.29068	-0.041962	-0.71014	-0.47485	-0.001526	0.016632
26.435	0.025482	0.16129	0.033417	0.013123	0.008392	0.048065	0.51193	-0.030823	0.000153	0.036163	-0.16007	-0.008392	0.086975	-0.08255	-0.30121	0.009003	0.068359	-0.13825	-0.95947	0.058441	-0.3212	-0.32074	0.069427	-0.081482	0.022125	0.019379	-0.054016	-0.050812	-1.2679	-0.32562	-0.004425	0.006256
26.436	0.010834	0.12817	0.0354	0.006256	0.005798	0.070953	0.55969	-0.013428	-0.005493	0.049896	0.011292	-0.019684	0.041656	-0.21057	-0.46493	-0.015717	0.045319	-0.049133	-0.65948	0.063782	-0.13397	-0.33859	0.050507	-0.012512	0.002899	0.044098	0.18143	0.041962	0.079651	-0.2211	-0.004578	-0.000763
26.437	0.020142	0.10529	0.039825	-0.005341	0.002289	0.036774	0.46204	-0.01709	-0.008698	0.080261	0.18402	-0.016937	-0.074615	-0.32318	0.10605	-0.011139	0.022583	0.084991	-0.053558	0.052185	0.10971	-0.31311	0.09552	0.004578	-0.058899	0.05188	0.19119	0.005188	0.41229	-0.14221	-0.002899	-0.000916
26.438	0.004883	0.06134	0.012817	0.000305	0.006104	0.026703	0.35767	-0.029297	-0.023651	0.069275	0.073853	-0.013885	-0.068665	-0.33981	0.085907	-0.002441	0.086823	0.10407	0.049286	0.045013	0.35339	-0.23041	0.034943	-0.077972	-0.035706	0.028839	0.30548	-0.008545	-2.8542	-0.32074	-0.002289	0.014343
26.439	0.002747	0.036011	-0.019226	0.009918	-0.001831	0.002747	0.24002	-0.001678	-0.025787	0.039215	-0.10742	-0.015717	0.009613	-0.35767	0.078125	-0.005646	0.14221	0.070801	-0.10056	-0.020752	0.38483	0.13092	-0.082855	-0.16525	-0.057678	0.033569	0.45898	-0.023956	-2.5209	-0.30121	-0.003357	-0.001831
26.44	-0.010681	0.024719	-0.004272	0.024872	-0.002899	0.004425	0.18265	-0.017548	-0.025482	0.036926	-0.14053	-0.023346	0.074921	-0.25986	0.14023	-0.015717	0.10666	0.077667	-0.18265	-0.22308	-0.048523	0.46249	-0.19882	-0.1268	-0.029907	0.021515	0.34744	0.010529	1.7731	-0.19043	-0.005035	0.003357
26.441	-0.016022	-0.036774	0.006104	0.000458	-0.001526	-0.048523	0.13748	-0.011444	-0.028381	0.023499	-0.16876	-0.024872	0.10635	-0.075378	0.10727	-0.036774	0.057068	0.12909	0.15793	-0.34729	-0.40466	0.73654	-0.058899	-0.083313	-0.02655	-0.013123	-0.05188	0.047302	3.9565	0.18402	-0.003204	0.003967
26.442	-0.007172	-0.063629	-0.017548	0.007935	0.001373	-0.051117	0.16785	-0.002289	-0.015869	-0.001831	-0.10834	-0.006714	0.073547	0.090027	0.13001	-0.040131	-0.004272	0.12756	1.0616	-0.44281	-0.66956	0.55512	0.037537	-0.082397	-0.010376	0.025024	-0.31586	0.001068	-0.45944	0.19745	-0.007172	0.026093
